<svg width="1918" height="1079" viewBox="0 0 1918 1079" fill="none" xmlns="http://www.w3.org/2000/svg">
<g clip-path="url(#clip0_25_1419)">
<path d="M1917.82 -2H-1.97V865.85H1917.82V-2Z" fill="#23A3D9"/>
<path d="M1917.81 794.34H-2V1077.84H1917.81V794.34Z" fill="#97CB5F"/>
<path d="M1704.66 769.24C1704.66 787.62 1694.52 791.91 1681.99 791.91C1669.46 791.91 1659.34 787.62 1659.34 769.24C1659.34 750.86 1673.38 725.41 1681.99 725.41C1690.6 725.41 1704.66 750.88 1704.66 769.24Z" fill="#76AA45"/>
<path d="M1704.66 769.24C1704.66 787.62 1694.52 791.91 1681.99 791.91V725.41C1690.62 725.41 1704.66 750.88 1704.66 769.24Z" fill="#268E46"/>
<path d="M1682 787.83C1681.51 787.83 1681.03 787.61 1680.71 787.19C1680.17 786.48 1680.31 785.46 1681.02 784.92L1689.1 778.8C1689.82 778.26 1690.83 778.4 1691.37 779.11C1691.91 779.82 1691.77 780.84 1691.06 781.38L1682.98 787.5C1682.69 787.72 1682.34 787.83 1682 787.83Z" fill="#5C6042"/>
<path d="M1681.99 812.93C1680.65 812.93 1679.57 811.84 1679.57 810.51V773.98C1679.57 772.64 1680.66 771.56 1681.99 771.56C1683.32 771.56 1684.41 772.65 1684.41 773.98V810.51C1684.41 811.85 1683.32 812.93 1681.99 812.93Z" fill="#5C6042"/>
<path d="M1807.63 767.15C1807.63 785.53 1797.49 789.82 1784.96 789.82C1772.43 789.82 1762.31 785.53 1762.31 767.15C1762.31 748.77 1776.35 723.32 1784.96 723.32C1793.57 723.32 1807.63 748.79 1807.63 767.15Z" fill="#76AA45"/>
<path d="M1807.63 767.15C1807.63 785.53 1797.49 789.82 1784.96 789.82V723.32C1793.59 723.32 1807.63 748.79 1807.63 767.15Z" fill="#268E46"/>
<path d="M1784.97 785.75C1784.48 785.75 1784 785.53 1783.68 785.11C1783.14 784.4 1783.28 783.38 1783.99 782.84L1792.07 776.72C1792.79 776.18 1793.8 776.32 1794.34 777.03C1794.88 777.74 1794.74 778.76 1794.03 779.3L1785.95 785.42C1785.66 785.64 1785.31 785.75 1784.97 785.75Z" fill="#5C6042"/>
<path d="M1784.97 810.85C1783.63 810.85 1782.55 809.76 1782.55 808.43V771.9C1782.55 770.56 1783.64 769.48 1784.97 769.48C1786.3 769.48 1787.39 770.57 1787.39 771.9V808.43C1787.39 809.77 1786.3 810.85 1784.97 810.85Z" fill="#5C6042"/>
<path d="M1750.66 811.24C1750.66 829.62 1740.52 833.91 1727.99 833.91C1715.46 833.91 1705.34 829.62 1705.34 811.24C1705.34 792.86 1719.38 767.41 1727.99 767.41C1736.6 767.41 1750.66 792.88 1750.66 811.24Z" fill="#76AA45"/>
<path d="M1750.66 811.24C1750.66 829.62 1740.52 833.91 1727.99 833.91V767.41C1736.62 767.41 1750.66 792.88 1750.66 811.24Z" fill="#268E46"/>
<path d="M1728 829.83C1727.51 829.83 1727.03 829.61 1726.71 829.19C1726.17 828.48 1726.31 827.46 1727.02 826.92L1735.1 820.8C1735.82 820.26 1736.83 820.4 1737.37 821.11C1737.91 821.82 1737.77 822.84 1737.06 823.38L1728.98 829.5C1728.69 829.72 1728.34 829.83 1728 829.83Z" fill="#5C6042"/>
<path d="M1727.99 854.93C1726.65 854.93 1725.57 853.84 1725.57 852.51V815.98C1725.57 814.64 1726.66 813.56 1727.99 813.56C1729.32 813.56 1730.41 814.65 1730.41 815.98V852.51C1730.41 853.85 1729.32 854.93 1727.99 854.93Z" fill="#5C6042"/>
<path d="M1830.66 844.24C1830.66 862.62 1820.52 866.91 1807.99 866.91C1795.46 866.91 1785.34 862.62 1785.34 844.24C1785.34 825.86 1799.38 800.41 1807.99 800.41C1816.6 800.41 1830.66 825.88 1830.66 844.24Z" fill="#76AA45"/>
<path d="M1830.66 844.24C1830.66 862.62 1820.52 866.91 1807.99 866.91V800.41C1816.62 800.41 1830.66 825.88 1830.66 844.24Z" fill="#268E46"/>
<path d="M1808 862.83C1807.51 862.83 1807.03 862.61 1806.71 862.19C1806.17 861.48 1806.31 860.46 1807.02 859.92L1815.1 853.8C1815.82 853.26 1816.83 853.4 1817.37 854.11C1817.91 854.82 1817.77 855.84 1817.06 856.38L1808.98 862.5C1808.69 862.72 1808.34 862.83 1808 862.83Z" fill="#5C6042"/>
<path d="M1807.99 887.93C1806.65 887.93 1805.57 886.84 1805.57 885.51V848.98C1805.57 847.64 1806.66 846.56 1807.99 846.56C1809.32 846.56 1810.41 847.65 1810.41 848.98V885.51C1810.41 886.85 1809.32 887.93 1807.99 887.93Z" fill="#5C6042"/>
<path d="M1708.66 867.24C1708.66 885.62 1698.52 889.91 1685.99 889.91C1673.46 889.91 1663.34 885.62 1663.34 867.24C1663.34 848.86 1677.38 823.41 1685.99 823.41C1694.6 823.41 1708.66 848.88 1708.66 867.24Z" fill="#76AA45"/>
<path d="M1708.66 867.24C1708.66 885.62 1698.52 889.91 1685.99 889.91V823.41C1694.62 823.41 1708.66 848.88 1708.66 867.24Z" fill="#268E46"/>
<path d="M1686 885.83C1685.51 885.83 1685.03 885.61 1684.71 885.19C1684.17 884.48 1684.31 883.46 1685.02 882.92L1693.1 876.8C1693.82 876.26 1694.83 876.4 1695.37 877.11C1695.91 877.82 1695.77 878.84 1695.06 879.38L1686.98 885.5C1686.69 885.72 1686.34 885.83 1686 885.83Z" fill="#5C6042"/>
<path d="M1685.99 910.93C1684.65 910.93 1683.57 909.84 1683.57 908.51V871.98C1683.57 870.64 1684.66 869.56 1685.99 869.56C1687.32 869.56 1688.41 870.65 1688.41 871.98V908.51C1688.41 909.85 1687.32 910.93 1685.99 910.93Z" fill="#5C6042"/>
<path d="M1760.66 863.24C1760.66 881.62 1750.52 885.91 1737.99 885.91C1725.46 885.91 1715.34 881.62 1715.34 863.24C1715.34 844.86 1729.38 819.41 1737.99 819.41C1746.6 819.41 1760.66 844.88 1760.66 863.24Z" fill="#76AA45"/>
<path d="M1760.66 863.24C1760.66 881.62 1750.52 885.91 1737.99 885.91V819.41C1746.62 819.41 1760.66 844.88 1760.66 863.24Z" fill="#268E46"/>
<path d="M1738 881.83C1737.51 881.83 1737.03 881.61 1736.71 881.19C1736.17 880.48 1736.31 879.46 1737.02 878.92L1745.1 872.8C1745.82 872.26 1746.83 872.4 1747.37 873.11C1747.91 873.82 1747.77 874.84 1747.06 875.38L1738.98 881.5C1738.69 881.72 1738.34 881.83 1738 881.83Z" fill="#5C6042"/>
<path d="M1737.99 906.93C1736.65 906.93 1735.57 905.84 1735.57 904.51V867.98C1735.57 866.64 1736.66 865.56 1737.99 865.56C1739.32 865.56 1740.41 866.65 1740.41 867.98V904.51C1740.41 905.85 1739.32 906.93 1737.99 906.93Z" fill="#5C6042"/>
<path d="M1663.66 819.24C1663.66 837.62 1653.52 841.91 1640.99 841.91C1628.46 841.91 1618.34 837.62 1618.34 819.24C1618.34 800.86 1632.38 775.41 1640.99 775.41C1649.6 775.41 1663.66 800.88 1663.66 819.24Z" fill="#76AA45"/>
<path d="M1663.66 819.24C1663.66 837.62 1653.52 841.91 1640.99 841.91V775.41C1649.62 775.41 1663.66 800.88 1663.66 819.24Z" fill="#268E46"/>
<path d="M1641 837.83C1640.51 837.83 1640.03 837.61 1639.71 837.19C1639.17 836.48 1639.31 835.46 1640.02 834.92L1648.1 828.8C1648.82 828.26 1649.83 828.4 1650.37 829.11C1650.91 829.82 1650.77 830.84 1650.06 831.38L1641.98 837.5C1641.69 837.72 1641.34 837.83 1641 837.83Z" fill="#5C6042"/>
<path d="M1640.99 862.93C1639.65 862.93 1638.57 861.84 1638.57 860.51V823.98C1638.57 822.64 1639.66 821.56 1640.99 821.56C1642.32 821.56 1643.41 822.65 1643.41 823.98V860.51C1643.41 861.85 1642.32 862.93 1640.99 862.93Z" fill="#5C6042"/>
<path d="M1589.66 813.24C1589.66 831.62 1579.52 835.91 1566.99 835.91C1554.46 835.91 1544.34 831.62 1544.34 813.24C1544.34 794.86 1558.38 769.41 1566.99 769.41C1575.6 769.41 1589.66 794.88 1589.66 813.24Z" fill="#76AA45"/>
<path d="M1589.66 813.24C1589.66 831.62 1579.52 835.91 1566.99 835.91V769.41C1575.62 769.41 1589.66 794.88 1589.66 813.24Z" fill="#268E46"/>
<path d="M1567 831.83C1566.51 831.83 1566.03 831.61 1565.71 831.19C1565.17 830.48 1565.31 829.46 1566.02 828.92L1574.1 822.8C1574.82 822.26 1575.83 822.4 1576.37 823.11C1576.91 823.82 1576.77 824.84 1576.06 825.38L1567.98 831.5C1567.69 831.72 1567.34 831.83 1567 831.83Z" fill="#5C6042"/>
<path d="M1566.99 856.93C1565.65 856.93 1564.57 855.84 1564.57 854.51V817.98C1564.57 816.64 1565.66 815.56 1566.99 815.56C1568.32 815.56 1569.41 816.65 1569.41 817.98V854.51C1569.41 855.85 1568.32 856.93 1566.99 856.93Z" fill="#5C6042"/>
<path d="M1544.66 852.24C1544.66 870.62 1534.52 874.91 1521.99 874.91C1509.46 874.91 1499.34 870.62 1499.34 852.24C1499.34 833.86 1513.38 808.41 1521.99 808.41C1530.6 808.41 1544.66 833.88 1544.66 852.24Z" fill="#76AA45"/>
<path d="M1544.66 852.24C1544.66 870.62 1534.52 874.91 1521.99 874.91V808.41C1530.62 808.41 1544.66 833.88 1544.66 852.24Z" fill="#268E46"/>
<path d="M1522 870.83C1521.51 870.83 1521.03 870.61 1520.71 870.19C1520.17 869.48 1520.31 868.46 1521.02 867.92L1529.1 861.8C1529.82 861.26 1530.83 861.4 1531.37 862.11C1531.91 862.82 1531.77 863.84 1531.06 864.38L1522.98 870.5C1522.69 870.72 1522.34 870.83 1522 870.83Z" fill="#5C6042"/>
<path d="M1521.99 895.93C1520.65 895.93 1519.57 894.84 1519.57 893.51V856.98C1519.57 855.64 1520.66 854.56 1521.99 854.56C1523.32 854.56 1524.41 855.65 1524.41 856.98V893.51C1524.41 894.85 1523.32 895.93 1521.99 895.93Z" fill="#5C6042"/>
<path d="M1521.66 955.24C1521.66 973.62 1511.52 977.91 1498.99 977.91C1486.46 977.91 1476.34 973.62 1476.34 955.24C1476.34 936.86 1490.38 911.41 1498.99 911.41C1507.6 911.41 1521.66 936.88 1521.66 955.24Z" fill="#76AA45"/>
<path d="M1521.66 955.24C1521.66 973.62 1511.52 977.91 1498.99 977.91V911.41C1507.62 911.41 1521.66 936.88 1521.66 955.24Z" fill="#268E46"/>
<path d="M1499 973.83C1498.51 973.83 1498.03 973.61 1497.71 973.19C1497.17 972.48 1497.31 971.46 1498.02 970.92L1506.1 964.8C1506.82 964.26 1507.83 964.4 1508.37 965.11C1508.91 965.82 1508.77 966.84 1508.06 967.38L1499.98 973.5C1499.69 973.72 1499.34 973.83 1499 973.83Z" fill="#5C6042"/>
<path d="M1498.99 998.93C1497.65 998.93 1496.57 997.84 1496.57 996.51V959.98C1496.57 958.64 1497.66 957.56 1498.99 957.56C1500.32 957.56 1501.41 958.65 1501.41 959.98V996.51C1501.41 997.85 1500.32 998.93 1498.99 998.93Z" fill="#5C6042"/>
<path d="M1587.66 911.24C1587.66 929.62 1577.52 933.91 1564.99 933.91C1552.46 933.91 1542.34 929.62 1542.34 911.24C1542.34 892.86 1556.38 867.41 1564.99 867.41C1573.6 867.41 1587.66 892.88 1587.66 911.24Z" fill="#76AA45"/>
<path d="M1587.66 911.24C1587.66 929.62 1577.52 933.91 1564.99 933.91V867.41C1573.62 867.41 1587.66 892.88 1587.66 911.24Z" fill="#268E46"/>
<path d="M1565 929.83C1564.51 929.83 1564.03 929.61 1563.71 929.19C1563.17 928.48 1563.31 927.46 1564.02 926.92L1572.1 920.8C1572.82 920.26 1573.83 920.4 1574.37 921.11C1574.91 921.82 1574.77 922.84 1574.06 923.38L1565.98 929.5C1565.69 929.72 1565.34 929.83 1565 929.83Z" fill="#5C6042"/>
<path d="M1564.99 954.93C1563.65 954.93 1562.57 953.84 1562.57 952.51V915.98C1562.57 914.64 1563.66 913.56 1564.99 913.56C1566.32 913.56 1567.41 914.65 1567.41 915.98V952.51C1567.41 953.85 1566.32 954.93 1564.99 954.93Z" fill="#5C6042"/>
<path d="M1661.66 886.24C1661.66 904.62 1651.52 908.91 1638.99 908.91C1626.46 908.91 1616.34 904.62 1616.34 886.24C1616.34 867.86 1630.38 842.41 1638.99 842.41C1647.6 842.41 1661.66 867.88 1661.66 886.24Z" fill="#76AA45"/>
<path d="M1661.66 886.24C1661.66 904.62 1651.52 908.91 1638.99 908.91V842.41C1647.62 842.41 1661.66 867.88 1661.66 886.24Z" fill="#268E46"/>
<path d="M1639 904.83C1638.51 904.83 1638.03 904.61 1637.71 904.19C1637.17 903.48 1637.31 902.46 1638.02 901.92L1646.1 895.8C1646.82 895.26 1647.83 895.4 1648.37 896.11C1648.91 896.82 1648.77 897.84 1648.06 898.38L1639.98 904.5C1639.69 904.72 1639.34 904.83 1639 904.83Z" fill="#5C6042"/>
<path d="M1638.99 929.93C1637.65 929.93 1636.57 928.84 1636.57 927.51V890.98C1636.57 889.64 1637.66 888.56 1638.99 888.56C1640.32 888.56 1641.41 889.65 1641.41 890.98V927.51C1641.41 928.85 1640.32 929.93 1638.99 929.93Z" fill="#5C6042"/>
<path d="M1773.66 934.24C1773.66 952.62 1763.52 956.91 1750.99 956.91C1738.46 956.91 1728.34 952.62 1728.34 934.24C1728.34 915.86 1742.38 890.41 1750.99 890.41C1759.6 890.41 1773.66 915.88 1773.66 934.24Z" fill="#76AA45"/>
<path d="M1773.66 934.24C1773.66 952.62 1763.52 956.91 1750.99 956.91V890.41C1759.62 890.41 1773.66 915.88 1773.66 934.24Z" fill="#268E46"/>
<path d="M1751 952.83C1750.51 952.83 1750.03 952.61 1749.71 952.19C1749.17 951.48 1749.31 950.46 1750.02 949.92L1758.1 943.8C1758.82 943.26 1759.83 943.4 1760.37 944.11C1760.91 944.82 1760.77 945.84 1760.06 946.38L1751.98 952.5C1751.69 952.72 1751.34 952.83 1751 952.83Z" fill="#5C6042"/>
<path d="M1750.99 977.93C1749.65 977.93 1748.57 976.84 1748.57 975.51V938.98C1748.57 937.64 1749.66 936.56 1750.99 936.56C1752.32 936.56 1753.41 937.65 1753.41 938.98V975.51C1753.41 976.85 1752.32 977.93 1750.99 977.93Z" fill="#5C6042"/>
<path d="M1708.66 944.24C1708.66 962.62 1698.52 966.91 1685.99 966.91C1673.46 966.91 1663.34 962.62 1663.34 944.24C1663.34 925.86 1677.38 900.41 1685.99 900.41C1694.6 900.41 1708.66 925.88 1708.66 944.24Z" fill="#76AA45"/>
<path d="M1708.66 944.24C1708.66 962.62 1698.52 966.91 1685.99 966.91V900.41C1694.62 900.41 1708.66 925.88 1708.66 944.24Z" fill="#268E46"/>
<path d="M1686 962.83C1685.51 962.83 1685.03 962.61 1684.71 962.19C1684.17 961.48 1684.31 960.46 1685.02 959.92L1693.1 953.8C1693.82 953.26 1694.83 953.4 1695.37 954.11C1695.91 954.82 1695.77 955.84 1695.06 956.38L1686.98 962.5C1686.69 962.72 1686.34 962.83 1686 962.83Z" fill="#5C6042"/>
<path d="M1685.99 987.93C1684.65 987.93 1683.57 986.84 1683.57 985.51V948.98C1683.57 947.64 1684.66 946.56 1685.99 946.56C1687.32 946.56 1688.41 947.65 1688.41 948.98V985.51C1688.41 986.85 1687.32 987.93 1685.99 987.93Z" fill="#5C6042"/>
<path d="M1638.66 948.24C1638.66 966.62 1628.52 970.91 1615.99 970.91C1603.46 970.91 1593.34 966.62 1593.34 948.24C1593.34 929.86 1607.38 904.41 1615.99 904.41C1624.6 904.41 1638.66 929.88 1638.66 948.24Z" fill="#76AA45"/>
<path d="M1638.66 948.24C1638.66 966.62 1628.52 970.91 1615.99 970.91V904.41C1624.62 904.41 1638.66 929.88 1638.66 948.24Z" fill="#268E46"/>
<path d="M1616 966.83C1615.51 966.83 1615.03 966.61 1614.71 966.19C1614.17 965.48 1614.31 964.46 1615.02 963.92L1623.1 957.8C1623.82 957.26 1624.83 957.4 1625.37 958.11C1625.91 958.82 1625.77 959.84 1625.06 960.38L1616.98 966.5C1616.69 966.72 1616.34 966.83 1616 966.83Z" fill="#5C6042"/>
<path d="M1615.99 991.93C1614.65 991.93 1613.57 990.84 1613.57 989.51V952.98C1613.57 951.64 1614.66 950.56 1615.99 950.56C1617.32 950.56 1618.41 951.65 1618.41 952.98V989.51C1618.41 990.85 1617.32 991.93 1615.99 991.93Z" fill="#5C6042"/>
<path d="M1587.66 973.24C1587.66 991.62 1577.52 995.91 1564.99 995.91C1552.46 995.91 1542.34 991.62 1542.34 973.24C1542.34 954.86 1556.38 929.41 1564.99 929.41C1573.6 929.41 1587.66 954.88 1587.66 973.24Z" fill="#76AA45"/>
<path d="M1587.66 973.24C1587.66 991.62 1577.52 995.91 1564.99 995.91V929.41C1573.62 929.41 1587.66 954.88 1587.66 973.24Z" fill="#268E46"/>
<path d="M1565 991.83C1564.51 991.83 1564.03 991.61 1563.71 991.19C1563.17 990.48 1563.31 989.46 1564.02 988.92L1572.1 982.8C1572.82 982.26 1573.83 982.4 1574.37 983.11C1574.91 983.82 1574.77 984.84 1574.06 985.38L1565.98 991.5C1565.69 991.72 1565.34 991.83 1565 991.83Z" fill="#5C6042"/>
<path d="M1564.99 1016.93C1563.65 1016.93 1562.57 1015.84 1562.57 1014.51V977.98C1562.57 976.64 1563.66 975.56 1564.99 975.56C1566.32 975.56 1567.41 976.65 1567.41 977.98V1014.51C1567.41 1015.85 1566.32 1016.93 1564.99 1016.93Z" fill="#5C6042"/>
<path d="M1811.66 909.24C1811.66 927.62 1801.52 931.91 1788.99 931.91C1776.46 931.91 1766.34 927.62 1766.34 909.24C1766.34 890.86 1780.38 865.41 1788.99 865.41C1797.6 865.41 1811.66 890.88 1811.66 909.24Z" fill="#76AA45"/>
<path d="M1811.66 909.24C1811.66 927.62 1801.52 931.91 1788.99 931.91V865.41C1797.62 865.41 1811.66 890.88 1811.66 909.24Z" fill="#268E46"/>
<path d="M1789 927.83C1788.51 927.83 1788.03 927.61 1787.71 927.19C1787.17 926.48 1787.31 925.46 1788.02 924.92L1796.1 918.8C1796.82 918.26 1797.83 918.4 1798.37 919.11C1798.91 919.82 1798.77 920.84 1798.06 921.38L1789.98 927.5C1789.69 927.72 1789.34 927.83 1789 927.83Z" fill="#5C6042"/>
<path d="M1788.99 952.93C1787.65 952.93 1786.57 951.84 1786.57 950.51V913.98C1786.57 912.64 1787.66 911.56 1788.99 911.56C1790.32 911.56 1791.41 912.65 1791.41 913.98V950.51C1791.41 951.85 1790.32 952.93 1788.99 952.93Z" fill="#5C6042"/>
<path d="M1875.66 783.24C1875.66 801.62 1865.52 805.91 1852.99 805.91C1840.46 805.91 1830.34 801.62 1830.34 783.24C1830.34 764.86 1844.38 739.41 1852.99 739.41C1861.6 739.41 1875.66 764.88 1875.66 783.24Z" fill="#76AA45"/>
<path d="M1875.66 783.24C1875.66 801.62 1865.52 805.91 1852.99 805.91V739.41C1861.62 739.41 1875.66 764.88 1875.66 783.24Z" fill="#268E46"/>
<path d="M1853 801.83C1852.51 801.83 1852.03 801.61 1851.71 801.19C1851.17 800.48 1851.31 799.46 1852.02 798.92L1860.1 792.8C1860.82 792.26 1861.83 792.4 1862.37 793.11C1862.91 793.82 1862.77 794.84 1862.06 795.38L1853.98 801.5C1853.69 801.72 1853.34 801.83 1853 801.83Z" fill="#5C6042"/>
<path d="M1852.99 826.93C1851.65 826.93 1850.57 825.84 1850.57 824.51V787.98C1850.57 786.64 1851.66 785.56 1852.99 785.56C1854.32 785.56 1855.41 786.65 1855.41 787.98V824.51C1855.41 825.85 1854.32 826.93 1852.99 826.93Z" fill="#5C6042"/>
<path d="M1886.66 865.24C1886.66 883.62 1876.52 887.91 1863.99 887.91C1851.46 887.91 1841.34 883.62 1841.34 865.24C1841.34 846.86 1855.38 821.41 1863.99 821.41C1872.6 821.41 1886.66 846.88 1886.66 865.24Z" fill="#76AA45"/>
<path d="M1886.66 865.24C1886.66 883.62 1876.52 887.91 1863.99 887.91V821.41C1872.62 821.41 1886.66 846.88 1886.66 865.24Z" fill="#268E46"/>
<path d="M1864 883.83C1863.51 883.83 1863.03 883.61 1862.71 883.19C1862.17 882.48 1862.31 881.46 1863.02 880.92L1871.1 874.8C1871.82 874.26 1872.83 874.4 1873.37 875.11C1873.91 875.82 1873.77 876.84 1873.06 877.38L1864.98 883.5C1864.69 883.72 1864.34 883.83 1864 883.83Z" fill="#5C6042"/>
<path d="M1863.99 908.93C1862.65 908.93 1861.57 907.84 1861.57 906.51V869.98C1861.57 868.64 1862.66 867.56 1863.99 867.56C1865.32 867.56 1866.41 868.65 1866.41 869.98V906.51C1866.41 907.85 1865.32 908.93 1863.99 908.93Z" fill="#5C6042"/>
<path d="M1877.66 964.24C1877.66 982.62 1867.52 986.91 1854.99 986.91C1842.46 986.91 1832.34 982.62 1832.34 964.24C1832.34 945.86 1846.38 920.41 1854.99 920.41C1863.6 920.41 1877.66 945.88 1877.66 964.24Z" fill="#76AA45"/>
<path d="M1877.66 964.24C1877.66 982.62 1867.52 986.91 1854.99 986.91V920.41C1863.62 920.41 1877.66 945.88 1877.66 964.24Z" fill="#268E46"/>
<path d="M1855 982.83C1854.51 982.83 1854.03 982.61 1853.71 982.19C1853.17 981.48 1853.31 980.46 1854.02 979.92L1862.1 973.8C1862.82 973.26 1863.83 973.4 1864.37 974.11C1864.91 974.82 1864.77 975.84 1864.06 976.38L1855.98 982.5C1855.69 982.72 1855.34 982.83 1855 982.83Z" fill="#5C6042"/>
<path d="M1854.99 1007.93C1853.65 1007.93 1852.57 1006.84 1852.57 1005.51V968.98C1852.57 967.64 1853.66 966.56 1854.99 966.56C1856.32 966.56 1857.41 967.65 1857.41 968.98V1005.51C1857.41 1006.85 1856.32 1007.93 1854.99 1007.93Z" fill="#5C6042"/>
<path d="M1813.66 999.24C1813.66 1017.62 1803.52 1021.91 1790.99 1021.91C1778.46 1021.91 1768.34 1017.62 1768.34 999.24C1768.34 980.86 1782.38 955.41 1790.99 955.41C1799.6 955.41 1813.66 980.88 1813.66 999.24Z" fill="#76AA45"/>
<path d="M1813.66 999.24C1813.66 1017.62 1803.52 1021.91 1790.99 1021.91V955.41C1799.62 955.41 1813.66 980.88 1813.66 999.24Z" fill="#268E46"/>
<path d="M1791 1017.83C1790.51 1017.83 1790.03 1017.61 1789.71 1017.19C1789.17 1016.48 1789.31 1015.46 1790.02 1014.92L1798.1 1008.8C1798.82 1008.26 1799.83 1008.4 1800.37 1009.11C1800.91 1009.82 1800.77 1010.84 1800.06 1011.38L1791.98 1017.5C1791.69 1017.72 1791.34 1017.83 1791 1017.83Z" fill="#5C6042"/>
<path d="M1790.99 1042.93C1789.65 1042.93 1788.57 1041.84 1788.57 1040.51V1003.98C1788.57 1002.64 1789.66 1001.56 1790.99 1001.56C1792.32 1001.56 1793.41 1002.65 1793.41 1003.98V1040.51C1793.41 1041.85 1792.32 1042.93 1790.99 1042.93Z" fill="#5C6042"/>
<path d="M1732.66 992.24C1732.66 1010.62 1722.52 1014.91 1709.99 1014.91C1697.46 1014.91 1687.34 1010.62 1687.34 992.24C1687.34 973.86 1701.38 948.41 1709.99 948.41C1718.6 948.41 1732.66 973.88 1732.66 992.24Z" fill="#76AA45"/>
<path d="M1732.66 992.24C1732.66 1010.62 1722.52 1014.91 1709.99 1014.91V948.41C1718.62 948.41 1732.66 973.88 1732.66 992.24Z" fill="#268E46"/>
<path d="M1710 1010.83C1709.51 1010.83 1709.03 1010.61 1708.71 1010.19C1708.17 1009.48 1708.31 1008.46 1709.02 1007.92L1717.1 1001.8C1717.82 1001.26 1718.83 1001.4 1719.37 1002.11C1719.91 1002.82 1719.77 1003.84 1719.06 1004.38L1710.98 1010.5C1710.69 1010.72 1710.34 1010.83 1710 1010.83Z" fill="#5C6042"/>
<path d="M1709.99 1035.93C1708.65 1035.93 1707.57 1034.84 1707.57 1033.51V996.98C1707.57 995.64 1708.66 994.56 1709.99 994.56C1711.32 994.56 1712.41 995.65 1712.41 996.98V1033.51C1712.41 1034.85 1711.32 1035.93 1709.99 1035.93Z" fill="#5C6042"/>
<path d="M472.81 793.85H-2V1077.85H393.25L472.81 793.85Z" fill="#6CDAFF"/>
<path d="M470.17 794.85H482.81L406.34 1077.82H393.7L470.17 794.85Z" fill="#FFE56E"/>
<path d="M482 795.17H494.64L418.17 1078.14H405.54L482 795.17Z" fill="#FFE56E"/>
<path d="M494 795.17H506.64L430.17 1078.14H417.54L494 795.17Z" fill="#FFE56E"/>
<path d="M142.67 719.45C139.8 716.92 136.88 714.75 134.62 713.12C130.78 710.38 126.71 707.77 122.52 705.36C118.28 702.92 113.99 700.7 109.71 698.76C107.28 697.68 104.07 696.3 100.63 695.11C101.32 691.57 101.73 688.08 102.01 685.38C102.46 680.72 102.69 675.89 102.69 671.03C102.69 666.18 102.47 661.35 102.02 656.67V656.63C101.73 653.88 101.3 650.25 100.56 646.53C99.96 643.55 97.42 641.48 94.37 641.48C91.29 641.41 88.78 643.56 88.18 646.54C87.43 650.26 87.01 653.89 86.72 656.68C86.27 661.37 86.04 666.2 86.05 671.04C86.05 675.93 86.28 680.76 86.74 685.44C87.02 688.08 87.43 691.55 88.12 695.12C84.71 696.3 81.49 697.68 79 698.78C74.77 700.71 70.47 702.93 66.23 705.37C62.03 707.79 57.95 710.4 54.13 713.13L54.1 713.15C51.87 714.77 48.94 716.94 46.08 719.46C43.8 721.47 43.28 724.71 44.8 727.34C45.96 729.35 48.03 730.51 50.23 730.51C50.91 730.51 51.6 730.4 52.28 730.17C55.87 728.96 59.23 727.51 61.79 726.37C66.08 724.42 70.37 722.2 74.56 719.77C78.78 717.33 82.85 714.71 86.68 711.98C88.84 710.41 91.64 708.32 94.38 705.94C97.12 708.32 99.92 710.41 102.11 712C105.91 714.71 109.97 717.32 114.2 719.76C118.39 722.19 122.69 724.41 126.97 726.36L127.01 726.38C129.52 727.5 132.87 728.95 136.49 730.17C137.17 730.4 137.86 730.51 138.53 730.51C140.72 730.51 142.79 729.35 143.96 727.34C145.48 724.7 144.95 721.46 142.67 719.45Z" fill="white"/>
<path d="M94.38 809C91.73 809 89.56 806.83 89.56 804.18V697.91C89.56 695.26 91.73 693.09 94.38 693.09C97.03 693.09 99.2 695.26 99.2 697.91V804.18C99.2 806.83 97.03 809 94.38 809Z" fill="#F2F2F2"/>
<path d="M102.94 844.85H85.82C85.58 844.85 85.38 844.65 85.38 844.41V805.04C85.38 800.09 89.43 796.04 94.38 796.04C99.33 796.04 103.38 800.09 103.38 805.04V844.41C103.38 844.65 103.18 844.85 102.94 844.85Z" fill="white"/>
<path d="M94.38 709.64C88.36 709.64 83.46 704.74 83.46 698.72C83.46 692.7 88.36 687.8 94.38 687.8C100.4 687.8 105.3 692.7 105.3 698.72C105.3 704.74 100.4 709.64 94.38 709.64Z" fill="#F2F2F2"/>
<path d="M100.01 698.72C100.01 701.83 97.49 704.35 94.38 704.35C91.27 704.35 88.75 701.83 88.75 698.72C88.75 695.61 91.27 693.09 94.38 693.09C97.49 693.09 100.01 695.61 100.01 698.72Z" fill="#CCCCCC"/>
<path d="M257.75 842.08C254.88 839.55 251.96 837.38 249.7 835.75C245.86 833.01 241.79 830.4 237.6 827.99C233.36 825.55 229.07 823.33 224.79 821.39C222.36 820.31 219.15 818.93 215.71 817.74C216.4 814.2 216.81 810.71 217.09 808.01C217.54 803.35 217.77 798.52 217.77 793.66C217.77 788.81 217.55 783.98 217.1 779.3V779.26C216.81 776.51 216.38 772.88 215.64 769.16C215.04 766.18 212.5 764.11 209.45 764.11C206.37 764.04 203.86 766.19 203.26 769.17C202.51 772.89 202.09 776.52 201.8 779.31C201.35 784 201.12 788.83 201.13 793.67C201.13 798.56 201.36 803.39 201.82 808.07C202.1 810.71 202.51 814.18 203.2 817.75C199.79 818.93 196.57 820.31 194.08 821.41C189.85 823.34 185.55 825.56 181.31 828C177.11 830.42 173.03 833.03 169.21 835.76L169.18 835.78C166.95 837.4 164.02 839.57 161.16 842.09C158.88 844.1 158.36 847.34 159.88 849.97C161.04 851.98 163.11 853.14 165.31 853.14C165.99 853.14 166.68 853.03 167.36 852.8C170.95 851.59 174.31 850.14 176.87 849C181.16 847.05 185.45 844.83 189.64 842.4C193.86 839.96 197.93 837.34 201.76 834.61C203.92 833.04 206.72 830.95 209.46 828.57C212.2 830.95 215 833.04 217.19 834.63C220.99 837.34 225.05 839.95 229.28 842.39C233.47 844.82 237.77 847.04 242.05 848.99L242.09 849.01C244.6 850.13 247.95 851.58 251.57 852.8C252.25 853.03 252.94 853.14 253.61 853.14C255.8 853.14 257.87 851.98 259.04 849.97C260.56 847.33 260.03 844.09 257.75 842.08Z" fill="white"/>
<path d="M209.46 931.62C206.81 931.62 204.64 929.45 204.64 926.8V820.53C204.64 817.88 206.81 815.71 209.46 815.71C212.11 815.71 214.28 817.88 214.28 820.53V926.8C214.28 929.45 212.11 931.62 209.46 931.62Z" fill="#F2F2F2"/>
<path d="M218.02 967.47H200.9C200.66 967.47 200.46 967.27 200.46 967.03V927.66C200.46 922.71 204.51 918.66 209.46 918.66C214.41 918.66 218.46 922.71 218.46 927.66V967.03C218.46 967.27 218.26 967.47 218.02 967.47Z" fill="white"/>
<path d="M209.46 832.26C203.44 832.26 198.54 827.36 198.54 821.34C198.54 815.32 203.44 810.42 209.46 810.42C215.48 810.42 220.38 815.32 220.38 821.34C220.38 827.36 215.48 832.26 209.46 832.26Z" fill="#F2F2F2"/>
<path d="M215.1 821.34C215.1 824.45 212.58 826.97 209.47 826.97C206.36 826.97 203.84 824.45 203.84 821.34C203.84 818.23 206.36 815.71 209.47 815.71C212.58 815.71 215.1 818.23 215.1 821.34Z" fill="#CCCCCC"/>
<path d="M1380.82 799.77H1328.64V839.72H1380.82V799.77Z" fill="white"/>
<path d="M1379.39 800.86H1330.07V838.62H1379.39V800.86Z" fill="#3E96D2"/>
<path d="M1346.51 800.86H1330.07V838.62H1346.51V800.86Z" stroke="white" stroke-miterlimit="10"/>
<path d="M1362.95 800.86H1346.51V838.62H1362.95V800.86Z" stroke="white" stroke-miterlimit="10"/>
<path d="M1379.38 800.86H1362.94V838.62H1379.38V800.86Z" stroke="white" stroke-miterlimit="10"/>
<path d="M1379.39 819.75H1330.07V838.63H1379.39V819.75Z" stroke="white" stroke-miterlimit="10"/>
<path d="M1354.72 848.43C1353.19 848.43 1351.94 847.19 1351.94 845.65V839.72H1357.49V845.65C1357.49 847.18 1356.25 848.43 1354.71 848.43H1354.72Z" fill="white"/>
<path d="M1443.93 799.8H1391.75V839.75H1443.93V799.8Z" fill="white"/>
<path d="M1442.5 800.9H1393.18V838.66H1442.5V800.9Z" fill="#3E96D2"/>
<path d="M1409.62 800.9H1393.18V838.66H1409.62V800.9Z" stroke="white" stroke-miterlimit="10"/>
<path d="M1426.06 800.9H1409.62V838.66H1426.06V800.9Z" stroke="white" stroke-miterlimit="10"/>
<path d="M1442.5 800.9H1426.06V838.66H1442.5V800.9Z" stroke="white" stroke-miterlimit="10"/>
<path d="M1442.5 819.78H1393.18V838.66H1442.5V819.78Z" stroke="white" stroke-miterlimit="10"/>
<path d="M1417.84 848.46C1416.31 848.46 1415.06 847.22 1415.06 845.68V839.75H1420.61V845.68C1420.61 847.21 1419.37 848.46 1417.83 848.46H1417.84Z" fill="white"/>
<path d="M1312.93 799.8H1260.75V839.75H1312.93V799.8Z" fill="white"/>
<path d="M1311.5 800.9H1262.18V838.66H1311.5V800.9Z" fill="#3E96D2"/>
<path d="M1278.62 800.9H1262.18V838.66H1278.62V800.9Z" stroke="white" stroke-miterlimit="10"/>
<path d="M1295.06 800.9H1278.62V838.66H1295.06V800.9Z" stroke="white" stroke-miterlimit="10"/>
<path d="M1311.5 800.9H1295.06V838.66H1311.5V800.9Z" stroke="white" stroke-miterlimit="10"/>
<path d="M1311.5 819.78H1262.18V838.66H1311.5V819.78Z" stroke="white" stroke-miterlimit="10"/>
<path d="M1286.84 848.46C1285.31 848.46 1284.06 847.22 1284.06 845.68V839.75H1289.61V845.68C1289.61 847.21 1288.37 848.46 1286.83 848.46H1286.84Z" fill="white"/>
<path d="M1188.28 799.69H1136.1V839.64H1188.28V799.69Z" fill="white"/>
<path d="M1186.85 800.79H1137.53V838.55H1186.85V800.79Z" fill="#3E96D2"/>
<path d="M1153.97 800.79H1137.53V838.55H1153.97V800.79Z" stroke="white" stroke-miterlimit="10"/>
<path d="M1170.41 800.79H1153.97V838.55H1170.41V800.79Z" stroke="white" stroke-miterlimit="10"/>
<path d="M1186.85 800.79H1170.41V838.55H1186.85V800.79Z" stroke="white" stroke-miterlimit="10"/>
<path d="M1186.85 819.67H1137.53V838.55H1186.85V819.67Z" stroke="white" stroke-miterlimit="10"/>
<path d="M1162.19 848.35C1160.66 848.35 1159.41 847.11 1159.41 845.57V839.64H1164.96V845.57C1164.96 847.1 1163.72 848.35 1162.18 848.35H1162.19Z" fill="white"/>
<path d="M1251.4 799.72H1199.22V839.67H1251.4V799.72Z" fill="white"/>
<path d="M1249.97 800.82H1200.65V838.58H1249.97V800.82Z" fill="#3E96D2"/>
<path d="M1217.09 800.82H1200.65V838.58H1217.09V800.82Z" stroke="white" stroke-miterlimit="10"/>
<path d="M1233.53 800.82H1217.09V838.58H1233.53V800.82Z" stroke="white" stroke-miterlimit="10"/>
<path d="M1249.97 800.82H1233.53V838.58H1249.97V800.82Z" stroke="white" stroke-miterlimit="10"/>
<path d="M1249.97 819.7H1200.65V838.58H1249.97V819.7Z" stroke="white" stroke-miterlimit="10"/>
<path d="M1225.31 848.38C1223.78 848.38 1222.53 847.14 1222.53 845.6V839.67H1228.08V845.6C1228.08 847.13 1226.84 848.38 1225.3 848.38H1225.31Z" fill="white"/>
<path d="M1120.4 799.72H1068.22V839.67H1120.4V799.72Z" fill="white"/>
<path d="M1118.97 800.82H1069.65V838.58H1118.97V800.82Z" fill="#3E96D2"/>
<path d="M1086.09 800.82H1069.65V838.58H1086.09V800.82Z" stroke="white" stroke-miterlimit="10"/>
<path d="M1102.53 800.82H1086.09V838.58H1102.53V800.82Z" stroke="white" stroke-miterlimit="10"/>
<path d="M1118.97 800.82H1102.53V838.58H1118.97V800.82Z" stroke="white" stroke-miterlimit="10"/>
<path d="M1118.97 819.7H1069.65V838.58H1118.97V819.7Z" stroke="white" stroke-miterlimit="10"/>
<path d="M1094.31 848.38C1092.78 848.38 1091.53 847.14 1091.53 845.6V839.67H1097.08V845.6C1097.08 847.13 1095.84 848.38 1094.3 848.38H1094.31Z" fill="white"/>
<path d="M1355.25 854.41H1303.07V894.36H1355.25V854.41Z" fill="white"/>
<path d="M1353.82 855.5H1304.5V893.26H1353.82V855.5Z" fill="#3E96D2"/>
<path d="M1320.94 855.5H1304.5V893.26H1320.94V855.5Z" stroke="white" stroke-miterlimit="10"/>
<path d="M1337.38 855.5H1320.94V893.26H1337.38V855.5Z" stroke="white" stroke-miterlimit="10"/>
<path d="M1353.82 855.5H1337.38V893.26H1353.82V855.5Z" stroke="white" stroke-miterlimit="10"/>
<path d="M1353.82 874.38H1304.5V893.26H1353.82V874.38Z" stroke="white" stroke-miterlimit="10"/>
<path d="M1329.16 903.06C1327.63 903.06 1326.38 901.82 1326.38 900.28V894.35H1331.93V900.28C1331.93 901.81 1330.69 903.06 1329.15 903.06H1329.16Z" fill="white"/>
<path d="M1418.37 854.44H1366.19V894.39H1418.37V854.44Z" fill="white"/>
<path d="M1416.94 855.53H1367.62V893.29H1416.94V855.53Z" fill="#3E96D2"/>
<path d="M1384.06 855.53H1367.62V893.29H1384.06V855.53Z" stroke="white" stroke-miterlimit="10"/>
<path d="M1400.5 855.53H1384.06V893.29H1400.5V855.53Z" stroke="white" stroke-miterlimit="10"/>
<path d="M1416.93 855.53H1400.49V893.29H1416.93V855.53Z" stroke="white" stroke-miterlimit="10"/>
<path d="M1416.94 874.42H1367.62V893.3H1416.94V874.42Z" stroke="white" stroke-miterlimit="10"/>
<path d="M1392.27 903.1C1390.74 903.1 1389.49 901.86 1389.49 900.32V894.39H1395.04V900.32C1395.04 901.85 1393.8 903.1 1392.26 903.1H1392.27Z" fill="white"/>
<path d="M1287.37 854.44H1235.19V894.39H1287.37V854.44Z" fill="white"/>
<path d="M1285.94 855.53H1236.62V893.29H1285.94V855.53Z" fill="#3E96D2"/>
<path d="M1253.06 855.53H1236.62V893.29H1253.06V855.53Z" stroke="white" stroke-miterlimit="10"/>
<path d="M1269.5 855.53H1253.06V893.29H1269.5V855.53Z" stroke="white" stroke-miterlimit="10"/>
<path d="M1285.93 855.53H1269.49V893.29H1285.93V855.53Z" stroke="white" stroke-miterlimit="10"/>
<path d="M1285.94 874.42H1236.62V893.3H1285.94V874.42Z" stroke="white" stroke-miterlimit="10"/>
<path d="M1261.27 903.1C1259.74 903.1 1258.49 901.86 1258.49 900.32V894.39H1264.04V900.32C1264.04 901.85 1262.8 903.1 1261.26 903.1H1261.27Z" fill="white"/>
<path d="M1159.25 854.41H1107.07V894.36H1159.25V854.41Z" fill="white"/>
<path d="M1157.82 855.5H1108.5V893.26H1157.82V855.5Z" fill="#3E96D2"/>
<path d="M1124.94 855.5H1108.5V893.26H1124.94V855.5Z" stroke="white" stroke-miterlimit="10"/>
<path d="M1141.38 855.5H1124.94V893.26H1141.38V855.5Z" stroke="white" stroke-miterlimit="10"/>
<path d="M1157.82 855.5H1141.38V893.26H1157.82V855.5Z" stroke="white" stroke-miterlimit="10"/>
<path d="M1157.82 874.38H1108.5V893.26H1157.82V874.38Z" stroke="white" stroke-miterlimit="10"/>
<path d="M1133.16 903.06C1131.63 903.06 1130.38 901.82 1130.38 900.28V894.35H1135.93V900.28C1135.93 901.81 1134.69 903.06 1133.15 903.06H1133.16Z" fill="white"/>
<path d="M1222.37 854.44H1170.19V894.39H1222.37V854.44Z" fill="white"/>
<path d="M1220.94 855.53H1171.62V893.29H1220.94V855.53Z" fill="#3E96D2"/>
<path d="M1188.06 855.53H1171.62V893.29H1188.06V855.53Z" stroke="white" stroke-miterlimit="10"/>
<path d="M1204.5 855.53H1188.06V893.29H1204.5V855.53Z" stroke="white" stroke-miterlimit="10"/>
<path d="M1220.93 855.53H1204.49V893.29H1220.93V855.53Z" stroke="white" stroke-miterlimit="10"/>
<path d="M1220.94 874.42H1171.62V893.3H1220.94V874.42Z" stroke="white" stroke-miterlimit="10"/>
<path d="M1196.27 903.1C1194.74 903.1 1193.49 901.86 1193.49 900.32V894.39H1199.04V900.32C1199.04 901.85 1197.8 903.1 1196.26 903.1H1196.27Z" fill="white"/>
<path d="M1091.37 854.44H1039.19V894.39H1091.37V854.44Z" fill="white"/>
<path d="M1089.94 855.53H1040.62V893.29H1089.94V855.53Z" fill="#3E96D2"/>
<path d="M1057.06 855.53H1040.62V893.29H1057.06V855.53Z" stroke="white" stroke-miterlimit="10"/>
<path d="M1073.5 855.53H1057.06V893.29H1073.5V855.53Z" stroke="white" stroke-miterlimit="10"/>
<path d="M1089.93 855.53H1073.49V893.29H1089.93V855.53Z" stroke="white" stroke-miterlimit="10"/>
<path d="M1089.94 874.42H1040.62V893.3H1089.94V874.42Z" stroke="white" stroke-miterlimit="10"/>
<path d="M1065.27 903.1C1063.74 903.1 1062.49 901.86 1062.49 900.32V894.39H1068.04V900.32C1068.04 901.85 1066.8 903.1 1065.26 903.1H1065.27Z" fill="white"/>
<path d="M1318.32 913.27H1266.14V953.22H1318.32V913.27Z" fill="white"/>
<path d="M1316.89 914.36H1267.57V952.12H1316.89V914.36Z" fill="#3E96D2"/>
<path d="M1284.01 914.36H1267.57V952.12H1284.01V914.36Z" stroke="white" stroke-miterlimit="10"/>
<path d="M1300.45 914.36H1284.01V952.12H1300.45V914.36Z" stroke="white" stroke-miterlimit="10"/>
<path d="M1316.89 914.36H1300.45V952.12H1316.89V914.36Z" stroke="white" stroke-miterlimit="10"/>
<path d="M1316.89 933.24H1267.57V952.12H1316.89V933.24Z" stroke="white" stroke-miterlimit="10"/>
<path d="M1292.23 961.92C1290.7 961.92 1289.45 960.68 1289.45 959.14V953.21H1295V959.14C1295 960.67 1293.76 961.92 1292.22 961.92H1292.23Z" fill="white"/>
<path d="M1381.43 913.3H1329.25V953.25H1381.43V913.3Z" fill="white"/>
<path d="M1380 914.4H1330.68V952.16H1380V914.4Z" fill="#3E96D2"/>
<path d="M1347.12 914.4H1330.68V952.16H1347.12V914.4Z" stroke="white" stroke-miterlimit="10"/>
<path d="M1363.56 914.4H1347.12V952.16H1363.56V914.4Z" stroke="white" stroke-miterlimit="10"/>
<path d="M1380 914.4H1363.56V952.16H1380V914.4Z" stroke="white" stroke-miterlimit="10"/>
<path d="M1380 933.28H1330.68V952.16H1380V933.28Z" stroke="white" stroke-miterlimit="10"/>
<path d="M1355.34 961.96C1353.81 961.96 1352.56 960.72 1352.56 959.18V953.25H1358.11V959.18C1358.11 960.71 1356.87 961.96 1355.33 961.96H1355.34Z" fill="white"/>
<path d="M1250.43 913.3H1198.25V953.25H1250.43V913.3Z" fill="white"/>
<path d="M1249 914.4H1199.68V952.16H1249V914.4Z" fill="#3E96D2"/>
<path d="M1216.12 914.4H1199.68V952.16H1216.12V914.4Z" stroke="white" stroke-miterlimit="10"/>
<path d="M1232.56 914.4H1216.12V952.16H1232.56V914.4Z" stroke="white" stroke-miterlimit="10"/>
<path d="M1249 914.4H1232.56V952.16H1249V914.4Z" stroke="white" stroke-miterlimit="10"/>
<path d="M1249 933.28H1199.68V952.16H1249V933.28Z" stroke="white" stroke-miterlimit="10"/>
<path d="M1224.34 961.96C1222.81 961.96 1221.56 960.72 1221.56 959.18V953.25H1227.11V959.18C1227.11 960.71 1225.87 961.96 1224.33 961.96H1224.34Z" fill="white"/>
<path d="M1120.32 913.27H1068.14V953.22H1120.32V913.27Z" fill="white"/>
<path d="M1118.89 914.36H1069.57V952.12H1118.89V914.36Z" fill="#3E96D2"/>
<path d="M1086.01 914.36H1069.57V952.12H1086.01V914.36Z" stroke="white" stroke-miterlimit="10"/>
<path d="M1102.45 914.36H1086.01V952.12H1102.45V914.36Z" stroke="white" stroke-miterlimit="10"/>
<path d="M1118.89 914.36H1102.45V952.12H1118.89V914.36Z" stroke="white" stroke-miterlimit="10"/>
<path d="M1118.89 933.24H1069.57V952.12H1118.89V933.24Z" stroke="white" stroke-miterlimit="10"/>
<path d="M1094.23 961.92C1092.7 961.92 1091.45 960.68 1091.45 959.14V953.21H1097V959.14C1097 960.67 1095.76 961.92 1094.22 961.92H1094.23Z" fill="white"/>
<path d="M1183.43 913.3H1131.25V953.25H1183.43V913.3Z" fill="white"/>
<path d="M1182 914.4H1132.68V952.16H1182V914.4Z" fill="#3E96D2"/>
<path d="M1149.12 914.4H1132.68V952.16H1149.12V914.4Z" stroke="white" stroke-miterlimit="10"/>
<path d="M1165.56 914.4H1149.12V952.16H1165.56V914.4Z" stroke="white" stroke-miterlimit="10"/>
<path d="M1182 914.4H1165.56V952.16H1182V914.4Z" stroke="white" stroke-miterlimit="10"/>
<path d="M1182 933.28H1132.68V952.16H1182V933.28Z" stroke="white" stroke-miterlimit="10"/>
<path d="M1157.34 961.96C1155.81 961.96 1154.56 960.72 1154.56 959.18V953.25H1160.11V959.18C1160.11 960.71 1158.87 961.96 1157.33 961.96H1157.34Z" fill="white"/>
<path d="M1052.43 913.3H1000.25V953.25H1052.43V913.3Z" fill="white"/>
<path d="M1051 914.4H1001.68V952.16H1051V914.4Z" fill="#3E96D2"/>
<path d="M1018.12 914.4H1001.68V952.16H1018.12V914.4Z" stroke="white" stroke-miterlimit="10"/>
<path d="M1034.56 914.4H1018.12V952.16H1034.56V914.4Z" stroke="white" stroke-miterlimit="10"/>
<path d="M1051 914.4H1034.56V952.16H1051V914.4Z" stroke="white" stroke-miterlimit="10"/>
<path d="M1051 933.28H1001.68V952.16H1051V933.28Z" stroke="white" stroke-miterlimit="10"/>
</g>
<defs>
<clipPath id="clip0_25_1419">
<rect width="1919.81" height="1080.14" fill="white" transform="translate(-2 -2)"/>
</clipPath>
</defs>
</svg>
